<mxfile host="app.diagrams.net" modified="2024-03-01T07:53:44.881Z" agent="Mozilla/5.0 (Windows NT 10.0; Win64; x64) AppleWebKit/537.36 (KHTML, like Gecko) Chrome/122.0.0.0 Safari/537.36" etag="ES585YWREA4RTPkcd6J1" version="23.1.7" type="device">
  <diagram id="R2lEEEUBdFMjLlhIrx00" name="Page-1">
    <mxGraphModel dx="1134" dy="770" grid="1" gridSize="10" guides="1" tooltips="1" connect="1" arrows="1" fold="1" page="1" pageScale="1" pageWidth="850" pageHeight="1100" math="0" shadow="0" extFonts="Permanent Marker^https://fonts.googleapis.com/css?family=Permanent+Marker">
      <root>
        <mxCell id="0" />
        <mxCell id="1" parent="0" />
        <mxCell id="4j7c2oagiyhjRqFlwwm--1" value="Agent" style="swimlane;fontStyle=0;childLayout=stackLayout;horizontal=1;startSize=26;horizontalStack=0;resizeParent=1;resizeParentMax=0;resizeLast=0;collapsible=1;marginBottom=0;align=center;fontSize=14;" parent="1" vertex="1">
          <mxGeometry x="340" y="304" width="160" height="266" as="geometry" />
        </mxCell>
        <mxCell id="4j7c2oagiyhjRqFlwwm--2" value="&lt;u&gt;personnalNumber&lt;/u&gt;" style="text;strokeColor=none;fillColor=none;spacingLeft=4;spacingRight=4;overflow=hidden;rotatable=0;points=[[0,0.5],[1,0.5]];portConstraint=eastwest;fontSize=12;whiteSpace=wrap;html=1;" parent="4j7c2oagiyhjRqFlwwm--1" vertex="1">
          <mxGeometry y="26" width="160" height="30" as="geometry" />
        </mxCell>
        <mxCell id="4j7c2oagiyhjRqFlwwm--3" value="lastname" style="text;strokeColor=none;fillColor=none;spacingLeft=4;spacingRight=4;overflow=hidden;rotatable=0;points=[[0,0.5],[1,0.5]];portConstraint=eastwest;fontSize=12;whiteSpace=wrap;html=1;" parent="4j7c2oagiyhjRqFlwwm--1" vertex="1">
          <mxGeometry y="56" width="160" height="30" as="geometry" />
        </mxCell>
        <mxCell id="4j7c2oagiyhjRqFlwwm--4" value="firstname" style="text;strokeColor=none;fillColor=none;spacingLeft=4;spacingRight=4;overflow=hidden;rotatable=0;points=[[0,0.5],[1,0.5]];portConstraint=eastwest;fontSize=12;whiteSpace=wrap;html=1;" parent="4j7c2oagiyhjRqFlwwm--1" vertex="1">
          <mxGeometry y="86" width="160" height="30" as="geometry" />
        </mxCell>
        <mxCell id="4j7c2oagiyhjRqFlwwm--6" value="birthdate" style="text;strokeColor=none;fillColor=none;spacingLeft=4;spacingRight=4;overflow=hidden;rotatable=0;points=[[0,0.5],[1,0.5]];portConstraint=eastwest;fontSize=12;whiteSpace=wrap;html=1;" parent="4j7c2oagiyhjRqFlwwm--1" vertex="1">
          <mxGeometry y="116" width="160" height="30" as="geometry" />
        </mxCell>
        <mxCell id="4j7c2oagiyhjRqFlwwm--63" value="gsm" style="text;strokeColor=none;fillColor=none;spacingLeft=4;spacingRight=4;overflow=hidden;rotatable=0;points=[[0,0.5],[1,0.5]];portConstraint=eastwest;fontSize=12;whiteSpace=wrap;html=1;" parent="4j7c2oagiyhjRqFlwwm--1" vertex="1">
          <mxGeometry y="146" width="160" height="30" as="geometry" />
        </mxCell>
        <mxCell id="4j7c2oagiyhjRqFlwwm--5" value="gender&lt;div&gt;&lt;br/&gt;&lt;/div&gt;" style="text;strokeColor=none;fillColor=none;spacingLeft=4;spacingRight=4;overflow=hidden;rotatable=0;points=[[0,0.5],[1,0.5]];portConstraint=eastwest;fontSize=12;whiteSpace=wrap;html=1;" parent="4j7c2oagiyhjRqFlwwm--1" vertex="1">
          <mxGeometry y="176" width="160" height="30" as="geometry" />
        </mxCell>
        <mxCell id="cPswjJ0-BaewL98Gar4V-1" value="isAlone" style="text;strokeColor=none;fillColor=none;spacingLeft=4;spacingRight=4;overflow=hidden;rotatable=0;points=[[0,0.5],[1,0.5]];portConstraint=eastwest;fontSize=12;whiteSpace=wrap;html=1;" parent="4j7c2oagiyhjRqFlwwm--1" vertex="1">
          <mxGeometry y="206" width="160" height="30" as="geometry" />
        </mxCell>
        <mxCell id="cPswjJ0-BaewL98Gar4V-2" value="pseudonym[0..1]" style="text;strokeColor=none;fillColor=none;spacingLeft=4;spacingRight=4;overflow=hidden;rotatable=0;points=[[0,0.5],[1,0.5]];portConstraint=eastwest;fontSize=12;whiteSpace=wrap;html=1;" parent="4j7c2oagiyhjRqFlwwm--1" vertex="1">
          <mxGeometry y="236" width="160" height="30" as="geometry" />
        </mxCell>
        <mxCell id="4j7c2oagiyhjRqFlwwm--7" value="Language" style="swimlane;fontStyle=0;childLayout=stackLayout;horizontal=1;startSize=26;horizontalStack=0;resizeParent=1;resizeParentMax=0;resizeLast=0;collapsible=1;marginBottom=0;align=center;fontSize=14;" parent="1" vertex="1">
          <mxGeometry x="615" y="404" width="160" height="146" as="geometry" />
        </mxCell>
        <mxCell id="4j7c2oagiyhjRqFlwwm--8" value="&lt;u&gt;code&lt;/u&gt;" style="text;strokeColor=none;fillColor=none;spacingLeft=4;spacingRight=4;overflow=hidden;rotatable=0;points=[[0,0.5],[1,0.5]];portConstraint=eastwest;fontSize=12;whiteSpace=wrap;html=1;" parent="4j7c2oagiyhjRqFlwwm--7" vertex="1">
          <mxGeometry y="26" width="160" height="30" as="geometry" />
        </mxCell>
        <mxCell id="4j7c2oagiyhjRqFlwwm--9" value="name" style="text;strokeColor=none;fillColor=none;spacingLeft=4;spacingRight=4;overflow=hidden;rotatable=0;points=[[0,0.5],[1,0.5]];portConstraint=eastwest;fontSize=12;whiteSpace=wrap;html=1;" parent="4j7c2oagiyhjRqFlwwm--7" vertex="1">
          <mxGeometry y="56" width="160" height="30" as="geometry" />
        </mxCell>
        <mxCell id="4j7c2oagiyhjRqFlwwm--10" value="englishName" style="text;strokeColor=none;fillColor=none;spacingLeft=4;spacingRight=4;overflow=hidden;rotatable=0;points=[[0,0.5],[1,0.5]];portConstraint=eastwest;fontSize=12;whiteSpace=wrap;html=1;" parent="4j7c2oagiyhjRqFlwwm--7" vertex="1">
          <mxGeometry y="86" width="160" height="30" as="geometry" />
        </mxCell>
        <mxCell id="4j7c2oagiyhjRqFlwwm--11" value="percentWorld[0..1]" style="text;strokeColor=none;fillColor=none;spacingLeft=4;spacingRight=4;overflow=hidden;rotatable=0;points=[[0,0.5],[1,0.5]];portConstraint=eastwest;fontSize=12;whiteSpace=wrap;html=1;" parent="4j7c2oagiyhjRqFlwwm--7" vertex="1">
          <mxGeometry y="116" width="160" height="30" as="geometry" />
        </mxCell>
        <mxCell id="4j7c2oagiyhjRqFlwwm--18" value="Cell" style="swimlane;fontStyle=0;childLayout=stackLayout;horizontal=1;startSize=26;horizontalStack=0;resizeParent=1;resizeParentMax=0;resizeLast=0;collapsible=1;marginBottom=0;align=center;fontSize=14;" parent="1" vertex="1">
          <mxGeometry x="650" y="194" width="160" height="116" as="geometry" />
        </mxCell>
        <mxCell id="4j7c2oagiyhjRqFlwwm--19" value="&lt;u&gt;name&lt;/u&gt;" style="text;strokeColor=none;fillColor=none;spacingLeft=4;spacingRight=4;overflow=hidden;rotatable=0;points=[[0,0.5],[1,0.5]];portConstraint=eastwest;fontSize=12;whiteSpace=wrap;html=1;" parent="4j7c2oagiyhjRqFlwwm--18" vertex="1">
          <mxGeometry y="26" width="160" height="30" as="geometry" />
        </mxCell>
        <mxCell id="4j7c2oagiyhjRqFlwwm--20" value="address" style="text;strokeColor=none;fillColor=none;spacingLeft=4;spacingRight=4;overflow=hidden;rotatable=0;points=[[0,0.5],[1,0.5]];portConstraint=eastwest;fontSize=12;whiteSpace=wrap;html=1;" parent="4j7c2oagiyhjRqFlwwm--18" vertex="1">
          <mxGeometry y="56" width="160" height="30" as="geometry" />
        </mxCell>
        <mxCell id="4j7c2oagiyhjRqFlwwm--21" value="phoneNumber" style="text;strokeColor=none;fillColor=none;spacingLeft=4;spacingRight=4;overflow=hidden;rotatable=0;points=[[0,0.5],[1,0.5]];portConstraint=eastwest;fontSize=12;whiteSpace=wrap;html=1;" parent="4j7c2oagiyhjRqFlwwm--18" vertex="1">
          <mxGeometry y="86" width="160" height="30" as="geometry" />
        </mxCell>
        <mxCell id="4j7c2oagiyhjRqFlwwm--24" value="" style="edgeStyle=entityRelationEdgeStyle;fontSize=12;html=1;endArrow=ERzeroToMany;startArrow=ERmandOne;rounded=0;entryX=1;entryY=0.5;entryDx=0;entryDy=0;exitX=0;exitY=0.5;exitDx=0;exitDy=0;" parent="1" source="4j7c2oagiyhjRqFlwwm--19" target="4j7c2oagiyhjRqFlwwm--4" edge="1">
          <mxGeometry width="100" height="100" relative="1" as="geometry">
            <mxPoint x="290" y="504" as="sourcePoint" />
            <mxPoint x="330" y="384" as="targetPoint" />
            <Array as="points">
              <mxPoint x="140" y="444" />
              <mxPoint x="300" y="474" />
              <mxPoint x="300" y="474" />
              <mxPoint x="150" y="444" />
            </Array>
          </mxGeometry>
        </mxCell>
        <mxCell id="4j7c2oagiyhjRqFlwwm--27" value="" style="edgeStyle=entityRelationEdgeStyle;fontSize=12;html=1;endArrow=ERoneToMany;startArrow=ERzeroToMany;rounded=0;exitX=1.01;exitY=1.04;exitDx=0;exitDy=0;entryX=0;entryY=0.5;entryDx=0;entryDy=0;exitPerimeter=0;" parent="1" source="4j7c2oagiyhjRqFlwwm--4" target="4j7c2oagiyhjRqFlwwm--9" edge="1">
          <mxGeometry width="100" height="100" relative="1" as="geometry">
            <mxPoint x="370" y="504" as="sourcePoint" />
            <mxPoint x="350" y="344" as="targetPoint" />
          </mxGeometry>
        </mxCell>
        <mxCell id="4j7c2oagiyhjRqFlwwm--28" value="Mission" style="swimlane;fontStyle=0;childLayout=stackLayout;horizontal=1;startSize=26;horizontalStack=0;resizeParent=1;resizeParentMax=0;resizeLast=0;collapsible=1;marginBottom=0;align=center;fontSize=14;" parent="1" vertex="1">
          <mxGeometry x="60" y="324" width="160" height="176" as="geometry" />
        </mxCell>
        <mxCell id="4j7c2oagiyhjRqFlwwm--29" value="&lt;u&gt;code&lt;/u&gt;" style="text;strokeColor=none;fillColor=none;spacingLeft=4;spacingRight=4;overflow=hidden;rotatable=0;points=[[0,0.5],[1,0.5]];portConstraint=eastwest;fontSize=12;whiteSpace=wrap;html=1;" parent="4j7c2oagiyhjRqFlwwm--28" vertex="1">
          <mxGeometry y="26" width="160" height="30" as="geometry" />
        </mxCell>
        <mxCell id="4j7c2oagiyhjRqFlwwm--30" value="startDate" style="text;strokeColor=none;fillColor=none;spacingLeft=4;spacingRight=4;overflow=hidden;rotatable=0;points=[[0,0.5],[1,0.5]];portConstraint=eastwest;fontSize=12;whiteSpace=wrap;html=1;" parent="4j7c2oagiyhjRqFlwwm--28" vertex="1">
          <mxGeometry y="56" width="160" height="30" as="geometry" />
        </mxCell>
        <mxCell id="4j7c2oagiyhjRqFlwwm--31" value="duration[0..1]" style="text;strokeColor=none;fillColor=none;spacingLeft=4;spacingRight=4;overflow=hidden;rotatable=0;points=[[0,0.5],[1,0.5]];portConstraint=eastwest;fontSize=12;whiteSpace=wrap;html=1;" parent="4j7c2oagiyhjRqFlwwm--28" vertex="1">
          <mxGeometry y="86" width="160" height="30" as="geometry" />
        </mxCell>
        <mxCell id="4j7c2oagiyhjRqFlwwm--32" value="description" style="text;strokeColor=none;fillColor=none;spacingLeft=4;spacingRight=4;overflow=hidden;rotatable=0;points=[[0,0.5],[1,0.5]];portConstraint=eastwest;fontSize=12;whiteSpace=wrap;html=1;" parent="4j7c2oagiyhjRqFlwwm--28" vertex="1">
          <mxGeometry y="116" width="160" height="30" as="geometry" />
        </mxCell>
        <mxCell id="4j7c2oagiyhjRqFlwwm--33" value="isHighRisk" style="text;strokeColor=none;fillColor=none;spacingLeft=4;spacingRight=4;overflow=hidden;rotatable=0;points=[[0,0.5],[1,0.5]];portConstraint=eastwest;fontSize=12;whiteSpace=wrap;html=1;" parent="4j7c2oagiyhjRqFlwwm--28" vertex="1">
          <mxGeometry y="146" width="160" height="30" as="geometry" />
        </mxCell>
        <mxCell id="4j7c2oagiyhjRqFlwwm--35" value="Mission type" style="swimlane;fontStyle=0;childLayout=stackLayout;horizontal=1;startSize=26;horizontalStack=0;resizeParent=1;resizeParentMax=0;resizeLast=0;collapsible=1;marginBottom=0;align=center;fontSize=14;" parent="1" vertex="1">
          <mxGeometry x="60" y="209" width="160" height="86" as="geometry" />
        </mxCell>
        <mxCell id="4j7c2oagiyhjRqFlwwm--36" value="&lt;u&gt;code&lt;/u&gt;" style="text;strokeColor=none;fillColor=none;spacingLeft=4;spacingRight=4;overflow=hidden;rotatable=0;points=[[0,0.5],[1,0.5]];portConstraint=eastwest;fontSize=12;whiteSpace=wrap;html=1;" parent="4j7c2oagiyhjRqFlwwm--35" vertex="1">
          <mxGeometry y="26" width="160" height="30" as="geometry" />
        </mxCell>
        <mxCell id="4j7c2oagiyhjRqFlwwm--37" value="name" style="text;strokeColor=none;fillColor=none;spacingLeft=4;spacingRight=4;overflow=hidden;rotatable=0;points=[[0,0.5],[1,0.5]];portConstraint=eastwest;fontSize=12;whiteSpace=wrap;html=1;" parent="4j7c2oagiyhjRqFlwwm--35" vertex="1">
          <mxGeometry y="56" width="160" height="30" as="geometry" />
        </mxCell>
        <mxCell id="4j7c2oagiyhjRqFlwwm--41" value="Location" style="swimlane;fontStyle=0;childLayout=stackLayout;horizontal=1;startSize=26;horizontalStack=0;resizeParent=1;resizeParentMax=0;resizeLast=0;collapsible=1;marginBottom=0;align=center;fontSize=14;" parent="1" vertex="1">
          <mxGeometry x="345" y="594" width="160" height="146" as="geometry" />
        </mxCell>
        <mxCell id="4j7c2oagiyhjRqFlwwm--42" value="&lt;u&gt;code&lt;/u&gt;" style="text;strokeColor=none;fillColor=none;spacingLeft=4;spacingRight=4;overflow=hidden;rotatable=0;points=[[0,0.5],[1,0.5]];portConstraint=eastwest;fontSize=12;whiteSpace=wrap;html=1;" parent="4j7c2oagiyhjRqFlwwm--41" vertex="1">
          <mxGeometry y="26" width="160" height="30" as="geometry" />
        </mxCell>
        <mxCell id="4j7c2oagiyhjRqFlwwm--43" value="name" style="text;strokeColor=none;fillColor=none;spacingLeft=4;spacingRight=4;overflow=hidden;rotatable=0;points=[[0,0.5],[1,0.5]];portConstraint=eastwest;fontSize=12;whiteSpace=wrap;html=1;" parent="4j7c2oagiyhjRqFlwwm--41" vertex="1">
          <mxGeometry y="56" width="160" height="30" as="geometry" />
        </mxCell>
        <mxCell id="4j7c2oagiyhjRqFlwwm--44" value="postalCode" style="text;strokeColor=none;fillColor=none;spacingLeft=4;spacingRight=4;overflow=hidden;rotatable=0;points=[[0,0.5],[1,0.5]];portConstraint=eastwest;fontSize=12;whiteSpace=wrap;html=1;" parent="4j7c2oagiyhjRqFlwwm--41" vertex="1">
          <mxGeometry y="86" width="160" height="30" as="geometry" />
        </mxCell>
        <mxCell id="4j7c2oagiyhjRqFlwwm--45" value="inhabitantsNb" style="text;strokeColor=none;fillColor=none;spacingLeft=4;spacingRight=4;overflow=hidden;rotatable=0;points=[[0,0.5],[1,0.5]];portConstraint=eastwest;fontSize=12;whiteSpace=wrap;html=1;" parent="4j7c2oagiyhjRqFlwwm--41" vertex="1">
          <mxGeometry y="116" width="160" height="30" as="geometry" />
        </mxCell>
        <mxCell id="4j7c2oagiyhjRqFlwwm--48" value="" style="edgeStyle=entityRelationEdgeStyle;fontSize=12;html=1;endArrow=ERoneToMany;startArrow=ERzeroToMany;rounded=0;entryX=1;entryY=0.5;entryDx=0;entryDy=0;exitX=0;exitY=0.5;exitDx=0;exitDy=0;" parent="1" source="4j7c2oagiyhjRqFlwwm--42" target="4j7c2oagiyhjRqFlwwm--33" edge="1">
          <mxGeometry width="100" height="100" relative="1" as="geometry">
            <mxPoint x="290" y="644" as="sourcePoint" />
            <mxPoint x="220" y="555" as="targetPoint" />
          </mxGeometry>
        </mxCell>
        <mxCell id="4j7c2oagiyhjRqFlwwm--49" value="Country" style="swimlane;fontStyle=0;childLayout=stackLayout;horizontal=1;startSize=26;horizontalStack=0;resizeParent=1;resizeParentMax=0;resizeLast=0;collapsible=1;marginBottom=0;align=center;fontSize=14;" parent="1" vertex="1">
          <mxGeometry x="600" y="584" width="160" height="146" as="geometry" />
        </mxCell>
        <mxCell id="4j7c2oagiyhjRqFlwwm--50" value="&lt;u&gt;name&lt;/u&gt;" style="text;strokeColor=none;fillColor=none;spacingLeft=4;spacingRight=4;overflow=hidden;rotatable=0;points=[[0,0.5],[1,0.5]];portConstraint=eastwest;fontSize=12;whiteSpace=wrap;html=1;" parent="4j7c2oagiyhjRqFlwwm--49" vertex="1">
          <mxGeometry y="26" width="160" height="30" as="geometry" />
        </mxCell>
        <mxCell id="4j7c2oagiyhjRqFlwwm--51" value="leader" style="text;strokeColor=none;fillColor=none;spacingLeft=4;spacingRight=4;overflow=hidden;rotatable=0;points=[[0,0.5],[1,0.5]];portConstraint=eastwest;fontSize=12;whiteSpace=wrap;html=1;" parent="4j7c2oagiyhjRqFlwwm--49" vertex="1">
          <mxGeometry y="56" width="160" height="30" as="geometry" />
        </mxCell>
        <mxCell id="4j7c2oagiyhjRqFlwwm--52" value="currency" style="text;strokeColor=none;fillColor=none;spacingLeft=4;spacingRight=4;overflow=hidden;rotatable=0;points=[[0,0.5],[1,0.5]];portConstraint=eastwest;fontSize=12;whiteSpace=wrap;html=1;" parent="4j7c2oagiyhjRqFlwwm--49" vertex="1">
          <mxGeometry y="86" width="160" height="30" as="geometry" />
        </mxCell>
        <mxCell id="4j7c2oagiyhjRqFlwwm--53" value="governmentType" style="text;strokeColor=none;fillColor=none;spacingLeft=4;spacingRight=4;overflow=hidden;rotatable=0;points=[[0,0.5],[1,0.5]];portConstraint=eastwest;fontSize=12;whiteSpace=wrap;html=1;" parent="4j7c2oagiyhjRqFlwwm--49" vertex="1">
          <mxGeometry y="116" width="160" height="30" as="geometry" />
        </mxCell>
        <mxCell id="4j7c2oagiyhjRqFlwwm--54" value="" style="edgeStyle=entityRelationEdgeStyle;fontSize=12;html=1;endArrow=ERoneToMany;startArrow=ERzeroToMany;rounded=0;exitX=0.993;exitY=0.085;exitDx=0;exitDy=0;exitPerimeter=0;" parent="1" source="4j7c2oagiyhjRqFlwwm--49" target="4j7c2oagiyhjRqFlwwm--7" edge="1">
          <mxGeometry width="100" height="100" relative="1" as="geometry">
            <mxPoint x="530" y="594" as="sourcePoint" />
            <mxPoint x="630" y="494" as="targetPoint" />
            <Array as="points">
              <mxPoint x="560" y="604" />
            </Array>
          </mxGeometry>
        </mxCell>
        <mxCell id="4j7c2oagiyhjRqFlwwm--55" value="" style="edgeStyle=entityRelationEdgeStyle;fontSize=12;html=1;endArrow=ERzeroToMany;startArrow=ERmandOne;rounded=0;entryX=1;entryY=0.5;entryDx=0;entryDy=0;" parent="1" target="4j7c2oagiyhjRqFlwwm--29" edge="1">
          <mxGeometry width="100" height="100" relative="1" as="geometry">
            <mxPoint x="220" y="274" as="sourcePoint" />
            <mxPoint x="260" y="504" as="targetPoint" />
            <Array as="points">
              <mxPoint x="200" y="334" />
            </Array>
          </mxGeometry>
        </mxCell>
        <mxCell id="4j7c2oagiyhjRqFlwwm--56" value="" style="edgeStyle=entityRelationEdgeStyle;fontSize=12;html=1;endArrow=ERzeroToMany;startArrow=ERmandOne;rounded=0;entryX=1.003;entryY=0.213;entryDx=0;entryDy=0;entryPerimeter=0;" parent="1" source="4j7c2oagiyhjRqFlwwm--49" target="4j7c2oagiyhjRqFlwwm--43" edge="1">
          <mxGeometry width="100" height="100" relative="1" as="geometry">
            <mxPoint x="580" y="674" as="sourcePoint" />
            <mxPoint x="520" y="644" as="targetPoint" />
          </mxGeometry>
        </mxCell>
        <mxCell id="4j7c2oagiyhjRqFlwwm--57" value="Contact" style="swimlane;fontStyle=0;childLayout=stackLayout;horizontal=1;startSize=26;horizontalStack=0;resizeParent=1;resizeParentMax=0;resizeLast=0;collapsible=1;marginBottom=0;align=center;fontSize=14;" parent="1" vertex="1">
          <mxGeometry x="80" y="754" width="160" height="116" as="geometry" />
        </mxCell>
        <mxCell id="4j7c2oagiyhjRqFlwwm--58" value="&lt;u&gt;personnalNumber&lt;/u&gt;" style="text;strokeColor=none;fillColor=none;spacingLeft=4;spacingRight=4;overflow=hidden;rotatable=0;points=[[0,0.5],[1,0.5]];portConstraint=eastwest;fontSize=12;whiteSpace=wrap;html=1;" parent="4j7c2oagiyhjRqFlwwm--57" vertex="1">
          <mxGeometry y="26" width="160" height="30" as="geometry" />
        </mxCell>
        <mxCell id="4j7c2oagiyhjRqFlwwm--59" value="pseudonym" style="text;strokeColor=none;fillColor=none;spacingLeft=4;spacingRight=4;overflow=hidden;rotatable=0;points=[[0,0.5],[1,0.5]];portConstraint=eastwest;fontSize=12;whiteSpace=wrap;html=1;" parent="4j7c2oagiyhjRqFlwwm--57" vertex="1">
          <mxGeometry y="56" width="160" height="30" as="geometry" />
        </mxCell>
        <mxCell id="4j7c2oagiyhjRqFlwwm--60" value="gsm" style="text;strokeColor=none;fillColor=none;spacingLeft=4;spacingRight=4;overflow=hidden;rotatable=0;points=[[0,0.5],[1,0.5]];portConstraint=eastwest;fontSize=12;whiteSpace=wrap;html=1;" parent="4j7c2oagiyhjRqFlwwm--57" vertex="1">
          <mxGeometry y="86" width="160" height="30" as="geometry" />
        </mxCell>
        <mxCell id="4j7c2oagiyhjRqFlwwm--62" value="" style="edgeStyle=entityRelationEdgeStyle;fontSize=12;html=1;endArrow=ERoneToMany;startArrow=ERzeroToMany;rounded=0;entryX=0;entryY=0.5;entryDx=0;entryDy=0;exitX=0.993;exitY=0.107;exitDx=0;exitDy=0;exitPerimeter=0;" parent="1" source="4j7c2oagiyhjRqFlwwm--59" target="4j7c2oagiyhjRqFlwwm--44" edge="1">
          <mxGeometry width="100" height="100" relative="1" as="geometry">
            <mxPoint x="230" y="724" as="sourcePoint" />
            <mxPoint x="280" y="684" as="targetPoint" />
            <Array as="points">
              <mxPoint x="300" y="694" />
            </Array>
          </mxGeometry>
        </mxCell>
        <mxCell id="4j7c2oagiyhjRqFlwwm--65" value="Region" style="text;html=1;align=center;verticalAlign=middle;resizable=0;points=[];autosize=1;strokeColor=none;fillColor=none;rotation=60;" parent="1" vertex="1">
          <mxGeometry x="260" y="535" width="60" height="30" as="geometry" />
        </mxCell>
        <mxCell id="4j7c2oagiyhjRqFlwwm--67" value="Affectation" style="text;html=1;align=center;verticalAlign=middle;resizable=0;points=[];autosize=1;strokeColor=none;fillColor=none;rotation=-60;" parent="1" vertex="1">
          <mxGeometry x="543" y="315" width="80" height="30" as="geometry" />
        </mxCell>
        <mxCell id="4j7c2oagiyhjRqFlwwm--68" value="Catergory" style="text;html=1;align=center;verticalAlign=middle;resizable=0;points=[];autosize=1;strokeColor=none;fillColor=none;rotation=90;" parent="1" vertex="1">
          <mxGeometry x="220" y="304" width="80" height="30" as="geometry" />
        </mxCell>
        <mxCell id="4j7c2oagiyhjRqFlwwm--69" value="Attribution" style="text;html=1;align=center;verticalAlign=middle;resizable=0;points=[];autosize=1;strokeColor=none;fillColor=none;" parent="1" vertex="1">
          <mxGeometry x="250" y="402" width="80" height="30" as="geometry" />
        </mxCell>
        <mxCell id="4j7c2oagiyhjRqFlwwm--71" value="Position" style="text;html=1;align=center;verticalAlign=middle;resizable=0;points=[];autosize=1;strokeColor=none;fillColor=none;rotation=0;" parent="1" vertex="1">
          <mxGeometry x="515" y="628" width="70" height="30" as="geometry" />
        </mxCell>
        <mxCell id="4j7c2oagiyhjRqFlwwm--72" value="Official language" style="text;html=1;align=center;verticalAlign=middle;resizable=0;points=[];autosize=1;strokeColor=none;fillColor=none;rotation=-90;" parent="1" vertex="1">
          <mxGeometry x="770" y="540" width="110" height="30" as="geometry" />
        </mxCell>
        <mxCell id="4j7c2oagiyhjRqFlwwm--73" value="Abilty" style="text;html=1;align=center;verticalAlign=middle;resizable=0;points=[];autosize=1;strokeColor=none;fillColor=none;rotation=45;" parent="1" vertex="1">
          <mxGeometry x="541" y="427" width="50" height="30" as="geometry" />
        </mxCell>
        <mxCell id="4j7c2oagiyhjRqFlwwm--75" value="Coverage" style="text;html=1;align=center;verticalAlign=middle;resizable=0;points=[];autosize=1;strokeColor=none;fillColor=none;rotation=-65;" parent="1" vertex="1">
          <mxGeometry x="261" y="758" width="80" height="30" as="geometry" />
        </mxCell>
        <mxCell id="4j7c2oagiyhjRqFlwwm--76" value="" style="edgeStyle=entityRelationEdgeStyle;fontSize=12;html=1;endArrow=ERzeroToMany;endFill=1;startArrow=ERzeroToMany;rounded=0;entryX=0;entryY=0.5;entryDx=0;entryDy=0;exitX=0.993;exitY=-0.04;exitDx=0;exitDy=0;exitPerimeter=0;" parent="1" source="4j7c2oagiyhjRqFlwwm--31" target="4j7c2oagiyhjRqFlwwm--4" edge="1">
          <mxGeometry width="100" height="100" relative="1" as="geometry">
            <mxPoint x="210" y="594" as="sourcePoint" />
            <mxPoint x="310" y="494" as="targetPoint" />
          </mxGeometry>
        </mxCell>
        <mxCell id="cPswjJ0-BaewL98Gar4V-3" value="Will" style="swimlane;fontStyle=0;childLayout=stackLayout;horizontal=1;startSize=26;horizontalStack=0;resizeParent=1;resizeParentMax=0;resizeLast=0;collapsible=1;marginBottom=0;align=center;fontSize=14;" parent="1" vertex="1">
          <mxGeometry x="340" y="100" width="160" height="116" as="geometry" />
        </mxCell>
        <mxCell id="cPswjJ0-BaewL98Gar4V-4" value="&lt;u&gt;code&lt;/u&gt;" style="text;strokeColor=none;fillColor=none;spacingLeft=4;spacingRight=4;overflow=hidden;rotatable=0;points=[[0,0.5],[1,0.5]];portConstraint=eastwest;fontSize=12;whiteSpace=wrap;html=1;" parent="cPswjJ0-BaewL98Gar4V-3" vertex="1">
          <mxGeometry y="26" width="160" height="30" as="geometry" />
        </mxCell>
        <mxCell id="cPswjJ0-BaewL98Gar4V-5" value="epitaph" style="text;strokeColor=none;fillColor=none;spacingLeft=4;spacingRight=4;overflow=hidden;rotatable=0;points=[[0,0.5],[1,0.5]];portConstraint=eastwest;fontSize=12;whiteSpace=wrap;html=1;" parent="cPswjJ0-BaewL98Gar4V-3" vertex="1">
          <mxGeometry y="56" width="160" height="30" as="geometry" />
        </mxCell>
        <mxCell id="cPswjJ0-BaewL98Gar4V-7" value="funeralsType" style="text;strokeColor=none;fillColor=none;spacingLeft=4;spacingRight=4;overflow=hidden;rotatable=0;points=[[0,0.5],[1,0.5]];portConstraint=eastwest;fontSize=12;whiteSpace=wrap;html=1;" parent="cPswjJ0-BaewL98Gar4V-3" vertex="1">
          <mxGeometry y="86" width="160" height="30" as="geometry" />
        </mxCell>
        <mxCell id="cPswjJ0-BaewL98Gar4V-8" value="Vehicle" style="swimlane;fontStyle=0;childLayout=stackLayout;horizontal=1;startSize=26;horizontalStack=0;resizeParent=1;resizeParentMax=0;resizeLast=0;collapsible=1;marginBottom=0;align=center;fontSize=14;" parent="1" vertex="1">
          <mxGeometry x="70" y="570" width="160" height="146" as="geometry" />
        </mxCell>
        <mxCell id="cPswjJ0-BaewL98Gar4V-9" value="&lt;u&gt;personnalNumber&lt;/u&gt;" style="text;strokeColor=none;fillColor=none;spacingLeft=4;spacingRight=4;overflow=hidden;rotatable=0;points=[[0,0.5],[1,0.5]];portConstraint=eastwest;fontSize=12;whiteSpace=wrap;html=1;" parent="cPswjJ0-BaewL98Gar4V-8" vertex="1">
          <mxGeometry y="26" width="160" height="30" as="geometry" />
        </mxCell>
        <mxCell id="cPswjJ0-BaewL98Gar4V-10" value="type" style="text;strokeColor=none;fillColor=none;spacingLeft=4;spacingRight=4;overflow=hidden;rotatable=0;points=[[0,0.5],[1,0.5]];portConstraint=eastwest;fontSize=12;whiteSpace=wrap;html=1;" parent="cPswjJ0-BaewL98Gar4V-8" vertex="1">
          <mxGeometry y="56" width="160" height="30" as="geometry" />
        </mxCell>
        <mxCell id="cPswjJ0-BaewL98Gar4V-11" value="hasWeapons" style="text;strokeColor=none;fillColor=none;spacingLeft=4;spacingRight=4;overflow=hidden;rotatable=0;points=[[0,0.5],[1,0.5]];portConstraint=eastwest;fontSize=12;whiteSpace=wrap;html=1;" parent="cPswjJ0-BaewL98Gar4V-8" vertex="1">
          <mxGeometry y="86" width="160" height="30" as="geometry" />
        </mxCell>
        <mxCell id="cPswjJ0-BaewL98Gar4V-16" value="color" style="text;strokeColor=none;fillColor=none;spacingLeft=4;spacingRight=4;overflow=hidden;rotatable=0;points=[[0,0.5],[1,0.5]];portConstraint=eastwest;fontSize=12;whiteSpace=wrap;html=1;" parent="cPswjJ0-BaewL98Gar4V-8" vertex="1">
          <mxGeometry y="116" width="160" height="30" as="geometry" />
        </mxCell>
        <mxCell id="cPswjJ0-BaewL98Gar4V-17" value="" style="fontSize=12;html=1;endArrow=ERzeroToMany;startArrow=ERmandOne;rounded=0;edgeStyle=orthogonalEdgeStyle;" parent="1" source="4j7c2oagiyhjRqFlwwm--28" target="cPswjJ0-BaewL98Gar4V-8" edge="1">
          <mxGeometry width="100" height="100" relative="1" as="geometry">
            <mxPoint x="290" y="640" as="sourcePoint" />
            <mxPoint x="390" y="540" as="targetPoint" />
            <Array as="points">
              <mxPoint x="150" y="520" />
              <mxPoint x="150" y="520" />
            </Array>
          </mxGeometry>
        </mxCell>
        <mxCell id="cPswjJ0-BaewL98Gar4V-18" value="" style="edgeStyle=orthogonalEdgeStyle;fontSize=12;html=1;endArrow=ERzeroToOne;startArrow=ERmandOne;rounded=0;" parent="1" source="cPswjJ0-BaewL98Gar4V-3" target="4j7c2oagiyhjRqFlwwm--1" edge="1">
          <mxGeometry width="100" height="100" relative="1" as="geometry">
            <mxPoint x="530" y="420" as="sourcePoint" />
            <mxPoint x="630" y="320" as="targetPoint" />
          </mxGeometry>
        </mxCell>
        <mxCell id="cPswjJ0-BaewL98Gar4V-19" value="Editorial" style="text;html=1;align=center;verticalAlign=middle;resizable=0;points=[];autosize=1;strokeColor=none;fillColor=none;" parent="1" vertex="1">
          <mxGeometry x="425" y="237" width="70" height="30" as="geometry" />
        </mxCell>
        <mxCell id="bSXdY3f03vlclXQno3YQ-1" value="Use" style="text;html=1;align=center;verticalAlign=middle;resizable=0;points=[];autosize=1;strokeColor=none;fillColor=none;" parent="1" vertex="1">
          <mxGeometry x="150" y="520" width="40" height="30" as="geometry" />
        </mxCell>
      </root>
    </mxGraphModel>
  </diagram>
</mxfile>
